<svg version="1.1" id="Layer_1" xmlns="http://www.w3.org/2000/svg" xmlns:xlink="http://www.w3.org/1999/xlink" x="0px" y="0px"
	 width="100%" viewBox="0 0 381 317" enable-background="new 0 0 381 317" xml:space="preserve">
<path fill="#FFFFFF" opacity="1.000000" stroke="none" 
	d="
M382.000000,15.000006 
	C382.000000,115.912292 382.000000,216.824585 382.000000,318.000000 
	C315.312683,318.000000 248.625000,318.000000 181.604309,317.614990 
	C184.314621,316.772644 187.412521,316.541382 190.392593,315.822021 
	C212.916534,310.385284 234.240570,302.285828 252.961624,288.131073 
	C255.534637,286.185638 256.026581,284.332977 256.023071,281.600616 
	C255.985886,252.615036 256.000000,223.629379 256.000000,194.643753 
	C256.000000,193.191406 256.000000,191.739044 256.000000,190.062653 
	C246.259506,189.628525 237.322128,191.869553 229.574570,196.353760 
	C210.122131,207.612656 198.852737,224.272675 198.883575,247.535736 
	C198.885529,249.009003 197.533463,251.374054 196.273895,251.825790 
	C176.781555,258.816956 156.715668,260.356506 136.606049,255.670029 
	C122.435707,252.367691 109.461731,245.996155 98.006348,236.613235 
	C82.825806,224.179123 71.319878,209.391861 64.839966,190.634064 
	C59.684048,175.708923 57.929478,160.731705 59.844799,145.014297 
	C61.270504,133.314743 64.444283,122.231262 69.760109,111.950134 
	C76.446877,99.017525 85.230194,87.591751 96.922340,78.464462 
	C114.396500,64.823540 134.044891,56.400333 156.105637,56.188248 
	C214.071548,55.630981 272.046417,56.039753 330.017548,55.956367 
	C338.535126,55.944118 346.625122,53.531094 354.024445,49.402992 
	C367.037079,42.143230 375.749908,31.288231 380.040588,16.935057 
	C380.271179,16.163725 381.327881,15.639344 382.000000,15.000006 
M222.083176,169.413116 
	C233.696579,162.428757 246.362381,160.470612 259.728821,160.917282 
	C271.548309,161.312256 283.391479,161.003464 295.224182,160.995163 
	C296.552795,160.994232 297.914612,161.104416 299.204926,160.863098 
	C315.283447,157.856018 328.433533,150.080444 337.876007,136.569397 
	C344.833374,126.614174 348.045441,115.488640 347.972046,103.000000 
	C345.821686,103.000000 344.182983,103.000000 342.544250,103.000000 
	C314.545715,103.000000 286.546906,102.929062 258.548798,103.040451 
	C249.384979,103.076904 240.456909,104.491882 231.998932,108.458527 
	C207.862274,119.778191 196.163956,142.326492 199.183502,168.586807 
	C199.903656,174.849869 202.623276,180.883026 204.423248,187.021912 
	C203.897659,186.099487 203.372070,185.177048 202.846481,184.254608 
	C209.088669,179.486847 215.330856,174.719070 222.083176,169.413116 
z"/>
<path fill="#000000" opacity="1.000000" stroke="none" 
	d="
M382.000000,14.525878 
	C381.327881,15.639344 380.271179,16.163725 380.040588,16.935057 
	C375.749908,31.288231 367.037079,42.143230 354.024445,49.402992 
	C346.625122,53.531094 338.535126,55.944118 330.017548,55.956367 
	C272.046417,56.039753 214.071548,55.630981 156.105637,56.188248 
	C134.044891,56.400333 114.396500,64.823540 96.922340,78.464462 
	C85.230194,87.591751 76.446877,99.017525 69.760109,111.950134 
	C64.444283,122.231262 61.270504,133.314743 59.844799,145.014297 
	C57.929478,160.731705 59.684048,175.708923 64.839966,190.634064 
	C71.319878,209.391861 82.825806,224.179123 98.006348,236.613235 
	C109.461731,245.996155 122.435707,252.367691 136.606049,255.670029 
	C156.715668,260.356506 176.781555,258.816956 196.273895,251.825790 
	C197.533463,251.374054 198.885529,249.009003 198.883575,247.535736 
	C198.852737,224.272675 210.122131,207.612656 229.574570,196.353760 
	C237.322128,191.869553 246.259506,189.628525 256.000000,190.062653 
	C256.000000,191.739044 256.000000,193.191406 256.000000,194.643753 
	C256.000000,223.629379 255.985886,252.615036 256.023071,281.600616 
	C256.026581,284.332977 255.534637,286.185638 252.961624,288.131073 
	C234.240570,302.285828 212.916534,310.385284 190.392593,315.822021 
	C187.412521,316.541382 184.314621,316.772644 181.135651,317.614990 
	C166.312439,318.000000 151.624878,318.000000 136.344788,317.623871 
	C134.705490,316.834473 133.685120,316.154602 132.608002,316.048035 
	C117.182693,314.521698 102.814285,309.237854 89.170502,302.445465 
	C68.025742,291.918793 49.763451,277.614441 35.098602,258.749969 
	C20.552952,240.038849 10.277060,219.471222 4.919666,196.383850 
	C4.090760,192.811737 2.329884,189.455872 1.000000,186.000000 
	C1.000000,185.250000 1.000000,184.500000 1.367050,183.261688 
	C1.489400,181.182266 1.244700,179.591125 1.000000,178.000000 
	C1.000000,166.312439 1.000000,154.624878 1.377067,142.342590 
	C1.502756,139.831894 1.251378,137.915955 1.000000,136.000000 
	C1.000000,135.250000 1.000000,134.500000 1.364220,133.276978 
	C2.609128,130.268524 3.750243,127.790955 4.328559,125.188324 
	C8.303383,107.300156 15.382812,90.687775 25.021523,75.181320 
	C34.247540,60.338806 45.599430,47.222401 59.299919,36.376728 
	C71.324600,26.857666 84.190880,18.272837 98.723183,13.249865 
	C111.271011,8.912812 124.395279,6.198108 137.339874,3.078031 
	C142.116058,1.926813 147.107010,1.666599 152.000000,0.999999 
	C228.666672,1.000000 305.333344,1.000000 382.000000,1.000000 
	C382.000000,5.401031 382.000000,9.726388 382.000000,14.525878 
z"/>
<path fill="#FFFFFF" opacity="1.000000" stroke="none" 
	d="
M151.531342,0.999999 
	C147.107010,1.666599 142.116058,1.926813 137.339874,3.078031 
	C124.395279,6.198108 111.271011,8.912812 98.723183,13.249865 
	C84.190880,18.272837 71.324600,26.857666 59.299919,36.376728 
	C45.599430,47.222401 34.247540,60.338806 25.021523,75.181320 
	C15.382812,90.687775 8.303383,107.300156 4.328559,125.188324 
	C3.750243,127.790955 2.609128,130.268524 1.364220,132.901978 
	C1.000000,89.068100 1.000000,45.136208 1.000000,1.000000 
	C51.020710,1.000000 101.041695,1.000000 151.531342,0.999999 
z"/>
<path fill="#FFFFFF" opacity="1.000000" stroke="none" 
	d="
M1.000000,186.468658 
	C2.329884,189.455872 4.090760,192.811737 4.919666,196.383850 
	C10.277060,219.471222 20.552952,240.038849 35.098602,258.749969 
	C49.763451,277.614441 68.025742,291.918793 89.170502,302.445465 
	C102.814285,309.237854 117.182693,314.521698 132.608002,316.048035 
	C133.685120,316.154602 134.705490,316.834473 135.876129,317.623871 
	C91.073830,318.000000 46.147667,318.000000 1.000000,318.000000 
	C1.000000,274.312683 1.000000,230.625000 1.000000,186.468658 
z"/>
<path fill="#FFFFFF" opacity="1.000000" stroke="none" 
	d="
M1.000000,136.428467 
	C1.251378,137.915955 1.502756,139.831894 1.377067,141.873932 
	C1.000000,140.285645 1.000000,138.571289 1.000000,136.428467 
z"/>
<path fill="#FFFFFF" opacity="1.000000" stroke="none" 
	d="
M1.000000,178.416656 
	C1.244700,179.591125 1.489400,181.182266 1.367050,182.886688 
	C1.000000,181.611115 1.000000,180.222214 1.000000,178.416656 
z"/>
<path fill="#017455" opacity="1.000000" stroke="none" 
	d="
M221.828110,169.682220 
	C215.330856,174.719070 209.088669,179.486847 202.846481,184.254608 
	C203.372070,185.177048 203.897659,186.099487 204.423248,187.021912 
	C202.623276,180.883026 199.903656,174.849869 199.183502,168.586807 
	C196.163956,142.326492 207.862274,119.778191 231.998932,108.458527 
	C240.456909,104.491882 249.384979,103.076904 258.548798,103.040451 
	C286.546906,102.929062 314.545715,103.000000 342.544250,103.000000 
	C344.182983,103.000000 345.821686,103.000000 347.972046,103.000000 
	C348.045441,115.488640 344.833374,126.614174 337.876007,136.569397 
	C328.433533,150.080444 315.283447,157.856018 299.204926,160.863098 
	C297.914612,161.104416 296.552795,160.994232 295.224182,160.995163 
	C283.391479,161.003464 271.548309,161.312256 259.728821,160.917282 
	C246.362381,160.470612 233.696579,162.428757 221.828110,169.682220 
z"/>
</svg>