<?xml version="1.0" encoding="UTF-8"?>
<!DOCTYPE svg PUBLIC "-//W3C//DTD SVG 1.1//EN" "http://www.w3.org/Graphics/SVG/1.1/DTD/svg11.dtd">
<svg xmlns="http://www.w3.org/2000/svg" version="1.1" width="381px" height="317px" style="shape-rendering:geometricPrecision; text-rendering:geometricPrecision; image-rendering:optimizeQuality; fill-rule:evenodd; clip-rule:evenodd" xmlns:xlink="http://www.w3.org/1999/xlink">
<g><path style="opacity:0.982" fill="#000000" d="M 151.5,-0.5 C 227.833,-0.5 304.167,-0.5 380.5,-0.5C 380.5,2.5 380.5,5.5 380.5,8.5C 375.751,31.4202 362.085,46.2535 339.5,53C 273.507,54.0073 207.507,55.0073 141.5,56C 98.7017,65.4664 71.5351,91.2998 60,133.5C 51.8672,189.076 73.3672,228.243 124.5,251C 148.276,258.586 171.942,258.252 195.5,250C 196.236,230.477 203.903,214.143 218.5,201C 229.035,192.765 241.035,188.599 254.5,188.5C 254.667,220.502 254.5,252.502 254,284.5C 230.932,301.953 205.098,312.62 176.5,316.5C 164.167,316.5 151.833,316.5 139.5,316.5C 71.5087,305.348 26.6753,267.014 5,201.5C 2.71871,192.449 0.885375,183.449 -0.5,174.5C -0.5,163.833 -0.5,153.167 -0.5,142.5C 8.15758,80.3558 41.1576,36.5225 98.5,11C 115.77,4.64828 133.437,0.814944 151.5,-0.5 Z"/></g>
<g><path style="opacity:0.974" fill="#017454" d="M 249.5,101.5 C 281.833,101.5 314.167,101.5 346.5,101.5C 344.863,132.639 328.863,151.805 298.5,159C 280.167,159.333 261.833,159.667 243.5,160C 226.136,162.093 212.969,170.593 204,185.5C 190.25,153.085 198.084,127.252 227.5,108C 234.677,104.878 242.01,102.711 249.5,101.5 Z"/></g>
</svg>
